<svg width="139" height="44" viewBox="0 0 139 44" fill="none" xmlns="http://www.w3.org/2000/svg">
<rect width="139" height="44" rx="22" fill="#3056D3"/>
<path d="M37.4716 19.5625C37.4186 19.0663 37.1951 18.6799 36.8011 18.4034C36.411 18.1269 35.9034 17.9886 35.2784 17.9886C34.839 17.9886 34.4621 18.0549 34.1477 18.1875C33.8333 18.3201 33.5928 18.5 33.4261 18.7273C33.2595 18.9545 33.1742 19.214 33.1705 19.5057C33.1705 19.7481 33.2254 19.9583 33.3352 20.1364C33.4489 20.3144 33.6023 20.4659 33.7955 20.5909C33.9886 20.7121 34.2027 20.8144 34.4375 20.8977C34.6723 20.9811 34.9091 21.0511 35.1477 21.108L36.2386 21.3807C36.678 21.483 37.1004 21.6212 37.5057 21.7955C37.9148 21.9697 38.2803 22.1894 38.6023 22.4545C38.928 22.7197 39.1856 23.0398 39.375 23.4148C39.5644 23.7898 39.6591 24.2292 39.6591 24.733C39.6591 25.4148 39.4848 26.0152 39.1364 26.5341C38.7879 27.0492 38.2841 27.4527 37.625 27.7443C36.9697 28.0322 36.1761 28.1761 35.2443 28.1761C34.339 28.1761 33.553 28.036 32.8864 27.7557C32.2235 27.4754 31.7045 27.0663 31.3295 26.5284C30.9583 25.9905 30.7576 25.3352 30.7273 24.5625H32.8011C32.8314 24.9678 32.9564 25.3049 33.1761 25.5739C33.3958 25.8428 33.6818 26.0436 34.0341 26.1761C34.3902 26.3087 34.7879 26.375 35.2273 26.375C35.6856 26.375 36.0871 26.3068 36.4318 26.1705C36.7803 26.0303 37.053 25.8371 37.25 25.5909C37.447 25.3409 37.5473 25.0492 37.5511 24.7159C37.5473 24.4129 37.4583 24.1629 37.2841 23.9659C37.1098 23.7652 36.8655 23.5985 36.5511 23.4659C36.2405 23.3295 35.8769 23.2083 35.4602 23.1023L34.1364 22.7614C33.178 22.5152 32.4205 22.142 31.8636 21.642C31.3106 21.1383 31.0341 20.4697 31.0341 19.6364C31.0341 18.9508 31.2197 18.3504 31.5909 17.8352C31.9659 17.3201 32.4754 16.9205 33.1193 16.6364C33.7633 16.3485 34.4924 16.2045 35.3068 16.2045C36.1326 16.2045 36.8561 16.3485 37.4773 16.6364C38.1023 16.9205 38.5928 17.3163 38.9489 17.8239C39.3049 18.3277 39.4886 18.9072 39.5 19.5625H37.4716ZM43.5043 22.8864V28H41.4474V16.3636H43.4588V20.7557H43.5611C43.7656 20.2633 44.0819 19.875 44.5099 19.5909C44.9418 19.303 45.491 19.1591 46.1577 19.1591C46.7637 19.1591 47.2921 19.286 47.7429 19.5398C48.1937 19.7936 48.5421 20.1648 48.7884 20.6534C49.0384 21.142 49.1634 21.7386 49.1634 22.4432V28H47.1065V22.7614C47.1065 22.1742 46.955 21.7178 46.652 21.392C46.3527 21.0625 45.9323 20.8977 45.3906 20.8977C45.027 20.8977 44.7012 20.9773 44.4134 21.1364C44.1293 21.2917 43.9058 21.517 43.7429 21.8125C43.5838 22.108 43.5043 22.4659 43.5043 22.8864ZM55.0668 28.1705C54.2145 28.1705 53.4759 27.983 52.8509 27.608C52.2259 27.233 51.741 26.7083 51.3963 26.0341C51.0554 25.3598 50.8849 24.572 50.8849 23.6705C50.8849 22.7689 51.0554 21.9792 51.3963 21.3011C51.741 20.6231 52.2259 20.0966 52.8509 19.7216C53.4759 19.3466 54.2145 19.1591 55.0668 19.1591C55.919 19.1591 56.6577 19.3466 57.2827 19.7216C57.9077 20.0966 58.3906 20.6231 58.7315 21.3011C59.0762 21.9792 59.2486 22.7689 59.2486 23.6705C59.2486 24.572 59.0762 25.3598 58.7315 26.0341C58.3906 26.7083 57.9077 27.233 57.2827 27.608C56.6577 27.983 55.919 28.1705 55.0668 28.1705ZM55.0781 26.5227C55.5402 26.5227 55.9266 26.3958 56.2372 26.142C56.5478 25.8845 56.7789 25.5398 56.9304 25.108C57.0857 24.6761 57.1634 24.1951 57.1634 23.6648C57.1634 23.1307 57.0857 22.6477 56.9304 22.2159C56.7789 21.7803 56.5478 21.4337 56.2372 21.1761C55.9266 20.9186 55.5402 20.7898 55.0781 20.7898C54.6046 20.7898 54.2107 20.9186 53.8963 21.1761C53.5857 21.4337 53.3527 21.7803 53.1974 22.2159C53.0459 22.6477 52.9702 23.1307 52.9702 23.6648C52.9702 24.1951 53.0459 24.6761 53.1974 25.108C53.3527 25.5398 53.5857 25.8845 53.8963 26.142C54.2107 26.3958 54.6046 26.5227 55.0781 26.5227ZM60.9943 31.2727V19.2727H63.017V20.7159H63.1364C63.2424 20.5038 63.392 20.2784 63.5852 20.0398C63.7784 19.7973 64.0398 19.5909 64.3693 19.4205C64.6989 19.2462 65.1193 19.1591 65.6307 19.1591C66.3049 19.1591 66.9129 19.3314 67.4545 19.6761C68 20.017 68.4318 20.5227 68.75 21.1932C69.072 21.8598 69.233 22.678 69.233 23.6477C69.233 24.6061 69.0758 25.4205 68.7614 26.0909C68.447 26.7614 68.0189 27.2727 67.4773 27.625C66.9356 27.9773 66.322 28.1534 65.6364 28.1534C65.1364 28.1534 64.7216 28.0701 64.392 27.9034C64.0625 27.7367 63.7973 27.536 63.5966 27.3011C63.3996 27.0625 63.2462 26.8371 63.1364 26.625H63.0511V31.2727H60.9943ZM63.0114 23.6364C63.0114 24.2008 63.0909 24.6951 63.25 25.1193C63.4129 25.5436 63.6458 25.875 63.9489 26.1136C64.2557 26.3485 64.6269 26.4659 65.0625 26.4659C65.517 26.4659 65.8977 26.3447 66.2045 26.1023C66.5114 25.8561 66.7424 25.5208 66.8977 25.0966C67.0568 24.6686 67.1364 24.1818 67.1364 23.6364C67.1364 23.0947 67.0587 22.6136 66.9034 22.1932C66.7481 21.7727 66.517 21.4432 66.2102 21.2045C65.9034 20.9659 65.5208 20.8466 65.0625 20.8466C64.6231 20.8466 64.25 20.9621 63.9432 21.1932C63.6364 21.4242 63.4034 21.7481 63.2443 22.1648C63.089 22.5814 63.0114 23.072 63.0114 23.6364ZM84.6165 16.3636V28H82.7415L77.2585 20.0739H77.1619V28H75.054V16.3636H76.9403L82.4176 24.2955H82.5199V16.3636H84.6165ZM90.6293 28.1705C89.777 28.1705 89.0384 27.983 88.4134 27.608C87.7884 27.233 87.3035 26.7083 86.9588 26.0341C86.6179 25.3598 86.4474 24.572 86.4474 23.6705C86.4474 22.7689 86.6179 21.9792 86.9588 21.3011C87.3035 20.6231 87.7884 20.0966 88.4134 19.7216C89.0384 19.3466 89.777 19.1591 90.6293 19.1591C91.4815 19.1591 92.2202 19.3466 92.8452 19.7216C93.4702 20.0966 93.9531 20.6231 94.294 21.3011C94.6387 21.9792 94.8111 22.7689 94.8111 23.6705C94.8111 24.572 94.6387 25.3598 94.294 26.0341C93.9531 26.7083 93.4702 27.233 92.8452 27.608C92.2202 27.983 91.4815 28.1705 90.6293 28.1705ZM90.6406 26.5227C91.1027 26.5227 91.4891 26.3958 91.7997 26.142C92.1103 25.8845 92.3414 25.5398 92.4929 25.108C92.6482 24.6761 92.7259 24.1951 92.7259 23.6648C92.7259 23.1307 92.6482 22.6477 92.4929 22.2159C92.3414 21.7803 92.1103 21.4337 91.7997 21.1761C91.4891 20.9186 91.1027 20.7898 90.6406 20.7898C90.1671 20.7898 89.7732 20.9186 89.4588 21.1761C89.1482 21.4337 88.9152 21.7803 88.7599 22.2159C88.6084 22.6477 88.5327 23.1307 88.5327 23.6648C88.5327 24.1951 88.6084 24.6761 88.7599 25.108C88.9152 25.5398 89.1482 25.8845 89.4588 26.142C89.7732 26.3958 90.1671 26.5227 90.6406 26.5227ZM98.108 28L95.642 19.2727H97.7386L99.2727 25.4091H99.3523L100.92 19.2727H102.994L104.562 25.375H104.648L106.159 19.2727H108.261L105.79 28H103.648L102.011 22.1023H101.892L100.256 28H98.108Z" fill="white"/>
</svg>
