<svg width="46" height="46" viewBox="0 0 46 46" fill="none" xmlns="http://www.w3.org/2000/svg">
<path fill-rule="evenodd" clip-rule="evenodd" d="M23.0003 3.83333C16.649 3.83333 11.5003 8.98206 11.5003 15.3333C11.5003 21.6846 16.649 26.8333 23.0003 26.8333C29.3516 26.8333 34.5003 21.6846 34.5003 15.3333C34.5003 8.98206 29.3516 3.83333 23.0003 3.83333ZM7.66699 15.3333C7.66699 6.86497 14.532 0 23.0003 0C31.4687 0 38.3337 6.86497 38.3337 15.3333C38.3337 23.8017 31.4687 30.6667 23.0003 30.6667C14.532 30.6667 7.66699 23.8017 7.66699 15.3333Z" fill="#3056D3"/>
<path fill-rule="evenodd" clip-rule="evenodd" d="M30.0121 24.7034C31.0615 24.5642 32.025 25.302 32.1642 26.3513L34.4834 43.8313C34.5802 44.5609 34.2507 45.2814 33.6356 45.6854C33.0205 46.0894 32.2283 46.1056 31.5973 45.7269L23 40.5686L14.4028 45.7269C13.7717 46.1056 12.9795 46.0894 12.3644 45.6854C11.7493 45.2813 11.4198 44.5606 11.5167 43.831L13.8359 26.3702C13.9753 25.3209 14.9389 24.5832 15.9882 24.7226C17.0376 24.862 17.7752 25.8256 17.6359 26.8749L15.8402 40.3941L22.0139 36.6899C22.6209 36.3257 23.3792 36.3257 23.9862 36.6899L30.1605 40.3945L28.3642 26.8555C28.225 25.8061 28.9628 24.8426 30.0121 24.7034Z" fill="#3056D3"/>
</svg>
