<svg width="46" height="46" viewBox="0 0 46 46" fill="none" xmlns="http://www.w3.org/2000/svg">
<path fill-rule="evenodd" clip-rule="evenodd" d="M7.66699 15.3333C6.60845 15.3333 5.75033 16.1915 5.75033 17.25V36.4167C5.75033 37.4752 6.60845 38.3333 7.66699 38.3333H38.3337C39.3922 38.3333 40.2503 37.4752 40.2503 36.4167V17.25C40.2503 16.1915 39.3922 15.3333 38.3337 15.3333H7.66699ZM1.91699 17.25C1.91699 14.0744 4.49135 11.5 7.66699 11.5H38.3337C41.5093 11.5 44.0837 14.0744 44.0837 17.25V36.4167C44.0837 39.5923 41.5093 42.1667 38.3337 42.1667H7.66699C4.49135 42.1667 1.91699 39.5923 1.91699 36.4167V17.25Z" fill="#3056D3"/>
<path fill-rule="evenodd" clip-rule="evenodd" d="M15.1011 5.51763C16.1795 4.4393 17.642 3.8335 19.167 3.8335H26.8337C28.3587 3.8335 29.8212 4.4393 30.8995 5.51763C31.9779 6.59597 32.5837 8.0585 32.5837 9.5835V40.2502C32.5837 41.3087 31.7255 42.1668 30.667 42.1668C29.6084 42.1668 28.7503 41.3087 28.7503 40.2502V9.5835C28.7503 9.07517 28.5484 8.58765 28.1889 8.22821C27.8295 7.86876 27.342 7.66683 26.8337 7.66683H19.167C18.6587 7.66683 18.1711 7.86876 17.8117 8.22821C17.4523 8.58765 17.2503 9.07517 17.2503 9.5835V40.2502C17.2503 41.3087 16.3922 42.1668 15.3337 42.1668C14.2751 42.1668 13.417 41.3087 13.417 40.2502V9.5835C13.417 8.0585 14.0228 6.59597 15.1011 5.51763Z" fill="#3056D3"/>
</svg>
