<svg width="46" height="49" viewBox="0 0 46 49" fill="none" xmlns="http://www.w3.org/2000/svg">
<g filter="url(#filter0_d_140_398)">
<path d="M26.6666 14.6667H32.1666C35.2043 14.6667 37.6666 17.1292 37.6666 20.1667V40.3334H26.6666V14.6667Z" fill="white"/>
<path d="M8.33337 13.461C8.33337 10.9372 10.051 8.73729 12.4994 8.12518L23.4994 5.37518C26.9707 4.50735 30.3334 7.13283 30.3334 10.711V40.3334H8.33337V13.461Z" fill="#98AAE9"/>
<path fill-rule="evenodd" clip-rule="evenodd" d="M15.6666 31.1666C15.6666 30.154 16.4874 29.3333 17.5 29.3333H21.1666C22.1792 29.3333 23 30.154 23 31.1666C23 32.1791 22.1792 32.9999 21.1666 32.9999H17.5C16.4874 32.9999 15.6666 32.1791 15.6666 31.1666Z" fill="white"/>
<path fill-rule="evenodd" clip-rule="evenodd" d="M15.6666 23.8333C15.6666 22.8208 16.4874 22 17.5 22H21.1666C22.1792 22 23 22.8208 23 23.8333C23 24.8459 22.1792 25.6667 21.1666 25.6667H17.5C16.4874 25.6667 15.6666 24.8459 15.6666 23.8333Z" fill="white"/>
<path fill-rule="evenodd" clip-rule="evenodd" d="M15.6666 16.5001C15.6666 15.4876 16.4874 14.6667 17.5 14.6667H21.1666C22.1792 14.6667 23 15.4876 23 16.5001C23 17.5126 22.1792 18.3334 21.1666 18.3334H17.5C16.4874 18.3334 15.6666 17.5126 15.6666 16.5001Z" fill="white"/>
<path fill-rule="evenodd" clip-rule="evenodd" d="M4.66663 38.5001C4.66663 37.4875 5.48745 36.6667 6.49996 36.6667H39.5C40.5125 36.6667 41.3333 37.4875 41.3333 38.5001C41.3333 39.5126 40.5125 40.3334 39.5 40.3334H6.49996C5.48745 40.3334 4.66663 39.5126 4.66663 38.5001Z" fill="#98AAE9"/>
</g>
<defs>
<filter id="filter0_d_140_398" x="-3" y="0" width="52" height="52" filterUnits="userSpaceOnUse" color-interpolation-filters="sRGB">
<feFlood flood-opacity="0" result="BackgroundImageFix"/>
<feColorMatrix in="SourceAlpha" type="matrix" values="0 0 0 0 0 0 0 0 0 0 0 0 0 0 0 0 0 0 127 0" result="hardAlpha"/>
<feOffset dy="4"/>
<feGaussianBlur stdDeviation="2"/>
<feComposite in2="hardAlpha" operator="out"/>
<feColorMatrix type="matrix" values="0 0 0 0 0 0 0 0 0 0 0 0 0 0 0 0 0 0 0.25 0"/>
<feBlend mode="normal" in2="BackgroundImageFix" result="effect1_dropShadow_140_398"/>
<feBlend mode="normal" in="SourceGraphic" in2="effect1_dropShadow_140_398" result="shape"/>
</filter>
</defs>
</svg>
