<svg width="46" height="46" viewBox="0 0 46 46" fill="none" xmlns="http://www.w3.org/2000/svg">
<path fill-rule="evenodd" clip-rule="evenodd" d="M22.9997 0C24.0582 0 24.9163 0.858121 24.9163 1.91667V44.0833C24.9163 45.1419 24.0582 46 22.9997 46C21.9411 46 21.083 45.1419 21.083 44.0833V1.91667C21.083 0.858121 21.9411 0 22.9997 0Z" fill="#3056D3"/>
<path fill-rule="evenodd" clip-rule="evenodd" d="M12.1092 10.1927C13.7267 8.57521 15.9205 7.6665 18.208 7.6665H32.583C33.6416 7.6665 34.4997 8.52462 34.4997 9.58317C34.4997 10.6417 33.6416 11.4998 32.583 11.4998H18.208C16.9372 11.4998 15.7184 12.0047 14.8198 12.9033C13.9212 13.8019 13.4163 15.0207 13.4163 16.2915C13.4163 17.5623 13.9212 18.7811 14.8198 19.6797C15.7184 20.5783 16.9372 21.0832 18.208 21.0832H27.7913C30.0788 21.0832 32.2726 21.9919 33.8901 23.6094C35.5076 25.2269 36.4163 27.4207 36.4163 29.7082C36.4163 31.9957 35.5076 34.1895 33.8901 35.807C32.2726 37.4245 30.0788 38.3332 27.7913 38.3332H11.4997C10.4411 38.3332 9.58301 37.475 9.58301 36.4165C9.58301 35.358 10.4411 34.4998 11.4997 34.4998H27.7913C29.0622 34.4998 30.281 33.995 31.1796 33.0964C32.0782 32.1978 32.583 30.979 32.583 29.7082C32.583 28.4373 32.0782 27.2186 31.1796 26.3199C30.281 25.4213 29.0622 24.9165 27.7913 24.9165H18.208C15.9205 24.9165 13.7267 24.0078 12.1092 22.3903C10.4917 20.7728 9.58301 18.579 9.58301 16.2915C9.58301 14.004 10.4917 11.8102 12.1092 10.1927Z" fill="#3056D3"/>
</svg>
