<svg width="92" height="92" viewBox="0 0 92 92" fill="none" xmlns="http://www.w3.org/2000/svg">
<g filter="url(#filter0_d_121_48472)">
<rect x="11" y="7" width="70" height="70" rx="15" fill="#3056D3"/>
</g>
<path d="M33.047 40.5859C33.211 40.5859 33.3751 40.5859 33.4845 40.5313L39.5548 38.3984C40.047 38.2344 40.3204 37.6875 40.1563 37.1953C39.9923 36.7031 39.4454 36.4297 38.9532 36.5938L35.2892 37.9063C37.0938 32.9297 41.8517 29.5391 47.3751 29.5391C53.2266 29.5391 58.3673 33.4219 59.7891 39.0547C59.8985 39.5469 60.4454 39.875 60.9376 39.7656C61.4298 39.6563 61.7579 39.1094 61.6485 38.6172C60.0079 32.1641 54.1016 27.6797 47.3751 27.6797C40.8126 27.6797 35.1251 31.8906 33.2657 38.0156L31.5704 33.2578C31.4063 32.7656 30.8595 32.4922 30.3673 32.6563C29.8751 32.8203 29.6017 33.3672 29.7657 33.8594L31.8438 39.8203C32.0079 40.2578 32.5548 40.5859 33.047 40.5859Z" fill="white"/>
<path d="M63.2345 52.2891L60.9923 46.3828C60.8829 46.0547 60.6095 45.7813 60.2813 45.6719C59.9532 45.5625 59.6251 45.5078 59.297 45.6719L53.2813 47.9688C52.7892 48.1328 52.5157 48.7344 52.7345 49.2266C52.8985 49.7188 53.5001 49.9922 53.9923 49.7735L57.711 48.3516C55.6329 52.6719 51.2032 55.5157 46.172 55.5157C40.6485 55.5157 35.7813 52.0703 34.086 46.9297C33.8673 46.4375 33.3204 46.1641 32.8282 46.3282C32.336 46.4922 32.0626 47.0391 32.2267 47.5313C34.1954 53.4375 39.7735 57.4297 46.1173 57.4297C52.1329 57.4297 57.4923 53.875 59.6798 48.461L61.4298 53C61.5938 53.3828 61.922 53.6016 62.3048 53.6016C62.4142 53.6016 62.5235 53.6016 62.6329 53.5469C63.1798 53.3282 63.4532 52.7813 63.2345 52.2891Z" fill="white"/>
<defs>
<filter id="filter0_d_121_48472" x="0" y="0" width="92" height="92" filterUnits="userSpaceOnUse" color-interpolation-filters="sRGB">
<feFlood flood-opacity="0" result="BackgroundImageFix"/>
<feColorMatrix in="SourceAlpha" type="matrix" values="0 0 0 0 0 0 0 0 0 0 0 0 0 0 0 0 0 0 127 0" result="hardAlpha"/>
<feOffset dy="4"/>
<feGaussianBlur stdDeviation="5.5"/>
<feColorMatrix type="matrix" values="0 0 0 0 0 0 0 0 0 0 0 0 0 0 0 0 0 0 0.06 0"/>
<feBlend mode="normal" in2="BackgroundImageFix" result="effect1_dropShadow_121_48472"/>
<feBlend mode="normal" in="SourceGraphic" in2="effect1_dropShadow_121_48472" result="shape"/>
</filter>
</defs>
</svg>
