<svg width="46" height="46" viewBox="0 0 46 46" fill="none" xmlns="http://www.w3.org/2000/svg">
<path fill-rule="evenodd" clip-rule="evenodd" d="M23.0003 5.74984C13.4734 5.74984 5.75033 13.4729 5.75033 22.9998C5.75033 32.5268 13.4734 40.2499 23.0003 40.2499C32.5273 40.2499 40.2503 32.5268 40.2503 22.9998C40.2503 13.4729 32.5273 5.74984 23.0003 5.74984ZM1.91699 22.9998C1.91699 11.3558 11.3563 1.9165 23.0003 1.9165C34.6443 1.9165 44.0837 11.3558 44.0837 22.9998C44.0837 34.6439 34.6443 44.0832 23.0003 44.0832C11.3563 44.0832 1.91699 34.6439 1.91699 22.9998Z" fill="#3056D3"/>
<path fill-rule="evenodd" clip-rule="evenodd" d="M16.8611 25.6753C16.2244 24.8354 15.0279 24.6668 14.1838 25.2999C13.3369 25.9351 13.1653 27.1364 13.8004 27.9833L15.3338 26.8333C13.8004 27.9833 13.8009 27.9839 13.8014 27.9845L13.8024 27.9859L13.8046 27.9888L13.8098 27.9957L13.8237 28.0138L13.8645 28.066C13.8975 28.1078 13.9423 28.1631 13.9985 28.2302C14.111 28.3641 14.27 28.5455 14.474 28.7584C14.8805 29.1825 15.4745 29.7412 16.2429 30.3C17.7723 31.4123 20.0765 32.5833 23.0004 32.5833C25.9244 32.5833 28.2286 31.4123 29.758 30.3C30.5264 29.7412 31.1204 29.1825 31.5268 28.7584C31.7309 28.5455 31.8899 28.3641 32.0023 28.2302C32.0586 28.1631 32.1034 28.1078 32.1364 28.066L32.1772 28.0138L32.191 27.9957L32.1963 27.9888L32.1985 27.9859L32.1995 27.9845C32.2 27.9839 32.2004 27.9833 30.6671 26.8333L32.2004 27.9833C32.8356 27.1364 32.6639 25.9351 31.8171 25.2999C30.9729 24.6668 29.7765 24.8354 29.1398 25.6753L29.1309 25.6867C29.1195 25.7011 29.0978 25.728 29.0661 25.7658C29.0026 25.8415 28.8996 25.9596 28.7592 26.1061C28.4769 26.4007 28.0526 26.8004 27.5033 27.1999C26.3973 28.0043 24.8682 28.7499 23.0004 28.7499C21.1327 28.7499 19.6036 28.0043 18.4976 27.1999C17.9482 26.8004 17.524 26.4007 17.2417 26.1061C17.1013 25.9596 16.9983 25.8415 16.9348 25.7658C16.9031 25.728 16.8814 25.7011 16.87 25.6867L16.8611 25.6753Z" fill="#3056D3"/>
<path fill-rule="evenodd" clip-rule="evenodd" d="M15.333 17.2502C15.333 16.1916 16.1911 15.3335 17.2497 15.3335H17.2688C18.3274 15.3335 19.1855 16.1916 19.1855 17.2502C19.1855 18.3087 18.3274 19.1668 17.2688 19.1668H17.2497C16.1911 19.1668 15.333 18.3087 15.333 17.2502Z" fill="#3056D3"/>
<path fill-rule="evenodd" clip-rule="evenodd" d="M26.833 17.2502C26.833 16.1916 27.6911 15.3335 28.7497 15.3335H28.7688C29.8274 15.3335 30.6855 16.1916 30.6855 17.2502C30.6855 18.3087 29.8274 19.1668 28.7688 19.1668H28.7497C27.6911 19.1668 26.833 18.3087 26.833 17.2502Z" fill="#3056D3"/>
</svg>
